inDegrees=yes
nColumns=22
nRows=31
DataType=double
version=3
OpenSimVersion=4.5
endheader
time	pelvis_tilt	pelvis_list	pelvis_rotation	pelvis_tx	pelvis_ty	pelvis_tz	hip_flexion_r	hip_adduction_r	hip_rotation_r	knee_angle_r	ankle_angle_r	mtp_angle_r	hip_flexion_l	hip_adduction_l	hip_rotation_l	knee_angle_l	ankle_angle_l	mtp_angle_l	lumbar_extension	lumbar_bending	lumbar_rotation
0.344904685976741	-2.517309820428185	-2.04581989080857	-1.209641947890291	0.4199721803948905	0.8787200024581574	0.004161184679375876	1.788206196409985	6.583072912797699	1.347085762762553	-12.13608760189921	13.41179046871236	0	32.3849739241326	-4.904584872469745	-7.249138161620111	-38.15879315585878	2.386470067381336	0	-1.476070941597267	1.810568284551946	4.858615550987864
0.3553563431275514	-2.415815469919254	-2.349394165341453	-1.657503316261017	0.4317790641939366	0.8770800501245273	0.003988195051176853	0.6371155174535897	6.826265869209545	1.520336569450412	-11.83378630569079	14.01771435892177	0	32.16882840899343	-5.116399956228427	-7.86980113464739	-33.94067117221294	1.43245273123617	0	-1.547421488736053	2.344797912477281	5.415146089456671
0.3658080002783617	-2.307390417495338	-2.68763769819047	-2.091787775567854	0.4436685473606335	0.8751687282823161	0.003746732569834462	-0.5322961936477898	7.085669767494022	1.639512219437075	-11.53827595669723	14.64631970803313	0	31.91469371867461	-5.324266112868202	-8.440555263907964	-29.91482882175555	0.841452220803442	0	-1.632199404787316	2.917320854313316	5.963133257698433
0.376259657429172	-2.19307268454259	-3.044492352016656	-2.502844514349603	0.4556323485223458	0.8730264568982166	0.00343981230999542	-1.717929070742714	7.34611391713638	1.699086928699801	-11.24968458069205	15.29353792353196	0	31.63672066919151	-5.516826824128093	-8.955585051190077	-26.09512733328324	0.4690285120620133	0	-1.733938404957109	3.504183916286115	6.498051751124045
0.3867113145799824	-2.075338082449202	-3.404943944752566	-2.886367215989191	0.4676322743059181	0.8706912341496685	0.003077564856926223	-2.888215738696478	7.595314224191534	1.696114594339586	-11.01456314484881	15.9500395800628	0	31.34606536843733	-5.687528312081085	-9.406536291673147	-22.4879181567393	0.1287064612401135	0	-1.860247193258869	4.083686869860999	7.014123193090093
0.3971629717307927	-1.955907156232999	-3.745531601811079	-3.238319943397547	0.4796461869305301	0.8681995117593206	0.002666350661798505	-4.026426243574565	7.812000344985169	1.626081318133263	-10.85156540534756	16.59832864912936	0	31.0589601325238	-5.821044244671361	-9.797602439139546	-19.12645729347461	-0.2616169678493834	0	-2.01505350167894	4.624629382783175	7.509540311524238
0.407614628881603	-1.835849290137824	-4.051995333907755	-3.557754321588056	0.4916431052177664	0.8655919322197304	0.002214228595369955	-5.108865521012014	7.984914112210599	1.492327336424292	-10.79297589568977	17.22147506413341	0	30.79571777541249	-5.913783378012326	-10.14304157594387	-16.0644815537408	-0.696152226150093	0	-2.204874149324563	5.107549978871663	7.982507368343252
0.4180662860324134	-1.715515891089974	-4.310002629999623	-3.844448176316348	0.5035993178311103	0.862914163305904	0.001732673392502931	-6.121029255283093	8.102536116789214	1.299952096125935	-10.85418453368169	17.79307248466935	0	30.58693159917536	-5.962910607645881	-10.46284457719713	-13.38526125543788	-1.141106006964755	0	-2.434698640696924	5.511789080560905	8.433018883806891
0.4285179431832237	-1.595374832453838	-4.512646686424125	-4.098550433620064	0.5154887845000443	0.8602093195008857	0.001233895517573528	-7.052856414122322	8.160416268010536	1.056669674065058	-11.0464158566967	18.30750976330476	0	30.49480874831642	-5.977742692830705	-10.7724344418308	-11.26757608421676	-1.502982252230775	0	-2.708726474989799	5.825334768163707	8.861883089015496
0.438969600334034	-1.474669643844018	-4.653666983849973	-4.321945922732575	0.5273178586300181	0.8575260302824392	0.0007309188546518572	-7.912001254092044	8.153359288149341	0.7730748436154969	-11.35356304430191	18.74971038220835	0	30.57541365718684	-5.969119787856564	-11.0840567646447	-9.893383627786916	-1.720058642350677	0	-3.02486181558362	6.038217981343847	9.269466096151975
0.4494212574848443	-1.351099231534634	-4.712530827456519	-4.518890482959073	0.5391392260433231	0.8549198789530669	0.0002357586986408232	-8.722623732631513	8.059614447523105	0.457948666825628	-11.73431657763125	19.10043580696887	0	30.83717127845139	-5.925638276613619	-11.39978254137577	-9.322761847786298	-1.769156356495916	0	-3.37322283502457	6.125402258937896	9.65536725338333
0.4598729146356547	-1.220575044634453	-4.655581141300789	-4.699133921422328	0.5510323359188497	0.8524537523137059	-0.0002347213745136821	-9.501096688177048	7.842455944067059	0.1225597989884275	-12.16791004785551	19.34900796413126	0	31.23463699784109	-5.815702558293411	-11.70930061186333	-9.482935069300023	-1.671187699215578	0	-3.740805897135473	6.047629184084171	10.01834302339134
0.470324571786465	-1.077908805889137	-4.454539510723539	-4.876405834536446	0.563097955934947	0.850198026200883	-0.0006593190905388099	-10.25737679411119	7.469465120986044	-0.2147530880640355	-12.64997092124998	19.47727934701598	0	31.67896785232568	-5.606750651725831	-11.9928487859031	-10.19152067015174	-1.530435937372162	0	-4.112499927728368	5.772672732372365	10.35491515548239
0.4807762289372753	-0.9183287621383688	-4.104089311999515	-5.061915039279607	0.5754589909388169	0.8482223784830133	-0.00102362879805267	-11.00727310096214	6.931449321408625	-0.5331837337021896	-13.16879697992972	19.45179355950198	0	32.06579063707187	-5.28117344812093	-12.21846100284662	-11.21746790621364	-1.522604648619682	0	-4.468780578175114	5.296218803008655	10.65943156251563
0.4912278860880857	-0.7388205676128681	-3.628391125615535	-5.263056946127593	0.5882218174291344	0.8465874844608376	-0.001328535208258977	-11.74802860093931	6.249382040105637	-0.8158887348515248	-13.74606252695299	19.23436457987551	0	32.29977083205172	-4.842856759358202	-12.3377525063326	-12.34836492127288	-1.794918696951815	0	-4.792470204531098	4.650331417392872	10.92760023823534
0.5016795432388961	-0.5402197784907763	-3.063387639602456	-5.489591708786752	0.6014743533815826	0.8453463251461882	-0.001564872060042323	-12.43388302156247	5.4559402116228	-1.054371677099704	-14.4777464987211	18.79446792741368	0	32.27651160691489	-4.306175245265792	-12.28407272105679	-13.35715579338557	-2.528068848613999	0	-5.064466011227061	3.879611360879759	11.15546733786065
0.5121312003897064	-0.3304126318827748	-2.449638934621545	-5.746771453237271	0.6152467930682065	0.844511077438544	-0.001741940249480937	-12.98581827221809	4.588843069847559	-1.251265153373533	-15.50274793075393	18.11609129930994	0	31.9341539106963	-3.686604591906399	-12.00173818244738	-14.09307436020463	-3.783852197135291	0	-5.26926827317721	3.036506233187313	11.34156850460722
0.5225828575405167	-0.1280992074144149	-1.815006396807629	-6.02698974901821	0.6295546056381477	0.8440248535708543	-0.001884535608270234	-13.39204189156461	3.678428011379807	-1.390040936214746	-16.79164565870584	17.15064672700324	0	31.3051145859171	-2.993148783639431	-11.51624280328091	-14.60961136991468	-5.289917928840895	0	-5.384009148050505	2.158929966415561	11.48348357142683
0.533034514691327	0.04265634418286714	-1.185624159613976	-6.301406389894637	0.6445305555727799	0.8438077557155496	-0.002016079034838281	-13.85848238989586	2.765797592835006	-1.415053668823841	-17.90412386991397	15.81537189428569	0	30.46898022370366	-2.23641514327396	-10.90214927761177	-15.03872416703005	-6.46842026042553	0	-5.365288097488958	1.279219520134103	11.56929928111496
0.5434861718421373	0.1663462520793489	-0.5739569030918263	-6.551706507024504	0.6600939660415085	0.8438029211810194	-0.002148764571416316	-14.38371236609666	1.875826702115021	-1.335686932765358	-18.8215747433299	14.157888844465	0	29.56580477349972	-1.428646936654358	-10.1817634350263	-15.64451775914146	-5.9309848689217	0	-5.21290166687879	0.4084363059992347	11.59690631589892
0.5539378289929477	0.2344282735435129	0.1336310668469087	-6.733885965069591	0.6758936250223887	0.8440351863884953	-0.002333775966554943	-14.8230361181269	0.9082961660092751	-1.184086165822524	-19.75142649422102	12.2782207927173	0	28.81432944053953	-0.4621108428167207	-9.286859198961309	-16.42479434343277	-5.317795297099905	0	-4.963018268732316	-0.5962521896020392	11.5388706773006
0.5643894861437581	0.2487030332870782	0.9610207794760934	-6.819599179750853	0.6916492282566905	0.8445541702939914	-0.002614814190670433	-15.0637014959579	-0.1482752929627334	-0.9776784012926177	-20.88367854124038	10.22696512028449	0	28.36531647705889	0.6647047591849374	-8.177547293553143	-17.48444362658066	-5.154814373295876	0	-4.659474830562594	-1.766796522275067	11.38743187181477
0.5748411432945684	0.2236573315381612	1.786570866495031	-6.799202297386564	0.7072606512220162	0.8454032720993097	-0.003003445563271629	-15.05426414375752	-1.16178744100414	-0.7257055533231862	-22.35457151334036	7.981647682480031	0	28.19191466099232	1.797805726124035	-6.981906152708344	-18.95012390100188	-4.80156848290113	0	-4.344772417037658	-2.960538620354452	11.15516088506053
0.5852928004453787	0.1760353292192128	2.467977485437803	-6.669638215946504	0.7227927214225539	0.8466396073386915	-0.00351218061820598	-14.76989975393652	-1.981148502293498	-0.4164888120592353	-24.27228307803062	5.546372464825237	0	28.08926362265155	2.765296571035397	-6.002124490031945	-20.57051300325803	-4.078913610518151	0	-4.029005620829651	-3.998738439191838	10.85325956324538
0.595744457596189	0.1183146111080696	3.007950403255544	-6.448167415715245	0.7382861022259987	0.8482576355862694	-0.004168086442539991	-14.13743303108814	-2.605292726767738	-0.03203970942606137	-26.82967762631398	3.244903456779357	0	27.87279743337388	3.57171684570659	-5.413061930195333	-22.00466641789225	-3.184308318513	0	-3.701714969733622	-4.863062816504788	10.49656409731184
0.6061961147469994	0.05992702058124844	3.476471398039352	-6.170235796193094	0.753739197490053	0.8501753407876463	-0.004959342271952369	-13.13277133816756	-3.106001345631897	0.3923417563217115	-30.06017481519229	1.209123910503014	0	27.42917878140067	4.311674593293195	-5.085645436544515	-23.0280519268034	-2.26357898095366	0	-3.352705076966159	-5.620829945264556	10.11053515574491
0.6166477718978097	0.003698158153050083	3.914014447690688	-5.867096188568977	0.7690490616138176	0.8522612814828129	-0.005809323842279066	-11.7859408619027	-3.518425137492356	0.8800324254793379	-33.83617782294576	-0.6228014900900647	0	26.74974373457386	5.022194861760175	-4.891524841754588	-23.6127645820717	-1.366443106548686	0	-2.993977091976165	-6.323758307638973	9.708538766393977
0.62709942904862	-0.05001173652899094	4.322760334749565	-5.571204536846815	0.7840920490951896	0.8543893226602645	-0.006642900841088054	-10.17308035761002	-3.836689538573379	1.51012720382466	-37.93196750851377	-2.210130949457323	0	25.87602373910027	5.688667527583926	-4.797056951873142	-23.82237869861014	-0.5108951633422728	0	-2.646069346262737	-6.975686193813845	9.29392276291478
0.6375510861994304	-0.1027920893263398	4.717454308901181	-5.317783645093605	0.7988019425512319	0.8564751054581372	-0.007437298343443137	-8.422285671223149	-4.112982317540786	2.215432366471489	-41.99301874099607	-3.077070972177514	0	24.85830337012858	6.309554551021209	-4.824195247904658	-23.73645613782983	0.3234052047589422	0	-2.318809343523173	-7.582010995454537	8.870141756692243
0.6480027433502407	-0.1551271923646907	5.09450375278237	-5.135956019687625	0.8131642556900628	0.8585488952717083	-0.00820761765462228	-6.618831847121769	-4.42243310309023	2.858660580556838	-45.60813592594574	-3.228981140106602	0	23.72550198858877	6.876040129820614	-4.984180741223827	-23.39404503131845	1.096675007279987	0	-2.015831150795858	-8.125079338324612	8.445571790221194
0.6584544005010511	-0.2073877944888392	5.422167734419572	-5.03933777881951	0.8271106953587756	0.860656337582679	-0.008951615310397927	-4.718493287563981	-4.762448477605683	3.415367439592741	-48.79906747784105	-3.087487079485545	0	22.51684438587932	7.358623118829189	-5.259326279550059	-22.85603128039903	1.789052114065075	0	-1.750309988120664	-8.564822397192614	8.020181438519487
